PathFileType	4	(X/Y/Z)	C:/Users/beibeiliu/ov580/test_trc\sequence.35_training_dense_right.trc
DataRate	CameraRate	NumFrames	NumMarkers	Units	OrigDataRate	OrigDataStartFrame	OrigNumFrames
120	120	25	19	mm	120	57	169
Frame#	Time	ThumbCMC			ThumbMCP			ThumbIP			ThumbTip			IndexMCP			IndexPIP			IndexTip			MiddleMCP			MiddlePIP			MiddleTip			RingMCP			RingPIP			RingTip			PinkyMCP			PinkyPIP			PinkyTip			BackHand1			BackHand2			BackHand3	
		X0	Y0	Z0	X1	Y1	Z1	X2	Y2	Z2	X3	Y3	Z3	X4	Y4	Z4	X5	Y5	Z5	X6	Y6	Z6	X7	Y7	Z7	X8	Y8	Z8	X9	Y9	Z9	X10	Y10	Z10	X11	Y11	Z11	X12	Y12	Z12	X13	Y13	Z13	X14	Y14	Z14	X15	Y15	Z15	X16	Y16	Z16	X17	Y17	Z17	X18	Y18	Z18	
56	0.466667	126.847	-0.813246	29.5322	137.577	2.26086	6.11448	144.724	-2.10897	-12.5974	157.083	-5.50453	-24.987	100.499	-0.17031	-35.7081	100.705	10.5386	-53.375	97.1627	28.558	-72.9615	82.8444	12.4622	-30.5656	82.8643	39.1417	-38.7793	93.9563	64.7223	-22.9355	72.6636	23.3551	-15.0664	82.8538	49.9345	-7.59701	96.1586	47.6567	15.6326	63.2185	27.1657	-2.33242	76.9238	46.2934	6.75126	92.4399	33.8858	24.0273	74.2917	-10.5062	22.2489	84.2112	-13.9595	47.4029	103.321	-17.4512	24.6131	
57	0.475	126.786	-1.60019	29.9896	137.111	-1.64769	4.30293	146.731	-6.22055	-15.5009	153.364	-7.63484	-23.9309	102.274	-2.51349	-34.9439	97.7588	9.95336	-55.53	95.263	29.3124	-72.6939	79.9165	12.7793	-30.5375	84.0683	40.9867	-41.5224	91.5127	64.9378	-27.0941	68.9139	24.3207	-14.4537	82.6018	48.5866	-10.655	100.705	45.9909	12.1703	59.8589	31.3073	-2.48997	78.6968	44.1951	2.18465	95.5486	31.7127	22.2954	75.8352	-11.5778	20.8533	81.1385	-13.2452	44.5932	100.88	-17.9269	24.8211	
58	0.483333	123.723	-3.18258	27.017	136.17	0.12851	6.54965	145.834	-4.61158	-11.9097	151.79	-7.25859	-28.2098	98.4028	-1.83865	-34.6278	99.193	10.2523	-58.0805	97.1486	27.4799	-73.4623	79.1578	11.6536	-30.2767	80.231	42.0929	-42.3207	94.4603	67.5615	-31.9394	71.3972	24.1817	-17.4094	81.786	50.2632	-9.54377	98.5081	49.9133	9.47319	58.5695	31.1633	-1.9514	77.3868	46.5996	3.30451	95.1397	37.253	20.772	71.1837	-8.42088	22.4341	80.1915	-12.7002	49.1877	99.6479	-18.3449	26.0848	
59	0.491667	123.796	0.26851	26.6121	138.003	4.62901	3.7318	137.645	4.70326	-18.956	147.128	5.05948	-32.7723	100.401	-0.773835	-35.9332	94.3621	11.113	-55.9166	88.7267	28.8718	-73.402	76.9305	14.2676	-32.8873	76.5134	39.9407	-44.7363	83.1103	66.1906	-38.9515	65.5606	25.7341	-16.3316	76.3009	51.6825	-11.657	91.8905	55.592	9.26123	55.1595	28.6596	0.324527	71.2202	47.9621	4.32776	91.1229	40.9556	17.0419	72.332	-9.24833	17.7069	82.1664	-14.2155	48.0332	100.225	-18.2852	25.8675	
60	0.5	132.404	13.9956	25.7543	131.426	23.8077	1.46035	134.016	28.1523	-20.9362	137.728	33.6275	-39.7128	98.1234	5.4968	-37.0371	91.491	19.0952	-57.6381	82.7338	34.4529	-73.7524	78.6436	8.82734	-29.5862	70.3004	31.9894	-45.2808	62.5429	65.5038	-40.0892	61.4537	22.6211	-14.4572	64.8785	47.1874	-10.4701	79.567	59.5573	9.43461	52.8566	21.1277	5.81375	67.568	43.384	5.43667	82.7587	47.6005	21.2265	80.5539	-13.1559	21.4118	93.4967	-15.3777	47.2441	110.595	-13.333	21.4346	
61	0.508333	131.765	35.3433	20.8918	125.536	51.8971	-0.0113764	116.582	54.7009	-23.0105	107.405	55.7579	-37.9594	105.934	16.6463	-33.0895	87.1342	23.0602	-52.9609	76.3894	35.1305	-67.1721	83.0105	4.98316	-25.4035	65.7761	20.6415	-46.4295	47.9158	43.1307	-47.9282	69.0127	11.1467	-12.8089	56.4436	32.4267	-14.2317	58.8546	54.4106	2.89191	60.393	10.6197	5.58792	56.5204	31.2868	8.95763	76.3833	49.4432	21.3315	98.7537	-9.14258	21.6322	113.735	-7.13871	45.9236	129.311	4.86077	20.0492	
62	0.516667	124.585	56.9928	18.1895	105.217	63.7081	-2.52176	91.8464	59.7183	-25.5313	80.5067	57.972	-38.9063	108.992	23.637	-33.9251	93.3231	22.6523	-51.6736	75.7365	28.1348	-70.8772	96.3634	1.49165	-31.935	79.0451	3.80166	-49.4037	49.5699	8.77644	-58.3213	81.9709	-1.2616	-12.1757	58.6976	14.7092	-22.4195	44.7165	35.526	-9.81878	73.3572	-4.0915	7.3491	58.975	17.1187	3.9503	63.293	40.6148	12.6806	118.309	2.69264	22.6567	129.488	9.34397	47.1763	134.395	25.3689	17.9585	
63	0.525	110.815	68.1203	13.7671	89.7266	65.1036	-7.10493	77.7206	55.4893	-26.0749	65.3015	41.2484	-40.092	114.644	31.3141	-37.2674	102.673	29.7981	-61.0841	85.654	20.0888	-75.7865	113.067	7.08987	-31.3702	102.211	-0.844126	-50.7842	78.5357	-13.6786	-70.0098	100.583	-2.80413	-15.3756	77.1124	-4.71344	-29.2868	54.2523	3.8963	-29.9241	91.0533	-7.78841	2.85341	72.8266	1.36349	-5.31006	56.2807	20.2995	-0.368476	128.634	14.2863	18.4038	133.069	28.6524	45.5293	133.787	45.5466	15.7393	
64	0.533333	96.5333	74.0286	20.8846	77.4547	63.0278	-9.07515	69.6728	49.255	-23.4452	68.1276	27.365	-36.0158	117.738	48.4926	-36.495	108.578	37.9859	-62.0945	99.0912	25.6664	-78.0265	125.568	23.7701	-33.0212	121.764	7.76532	-51.5569	113.684	-4.65939	-73.567	118.488	6.71898	-18.1261	100.19	-7.39968	-37.7169	81.6888	-7.63462	-44.3797	109.365	-2.46878	-1.85503	87.6701	-4.88228	-11.5498	66.1999	2.66889	-9.47858	132.154	28.3874	20.1947	131.447	42.2025	46.6852	127.17	59.5585	21.3839	
65	0.541667	86.7956	73.6205	24.0711	76.2837	57.7118	-1.63302	75.494	44.1293	-20.9592	79.9271	25.8701	-32.7332	120.775	62.5133	-29.8183	119.551	48.4081	-54.0542	114.048	39.4516	-71.3762	142.614	41.8461	-27.122	145.114	33.4846	-46.4789	146.105	23.0524	-69.3393	139.17	28.6137	-17.8256	134.334	15.9087	-38.7737	118.614	4.03381	-53.5178	134.604	12.4631	-2.91579	118.662	0.00645847	-16.8871	98.7105	0.457241	-19.8682	136.243	46.5476	28.7863	127.317	55.6116	53.2939	124.413	71.5128	27.4188	
66	0.55	92.042	70.5809	29.7175	86.9483	55.632	3.6422	91.3754	46.4851	-21.4465	100.896	33.6693	-34.2968	131.116	75.1997	-24.683	129.494	68.8999	-46.2658	125.783	52.0412	-68.3055	155.876	70.819	-14.2382	167.63	68.7784	-37.7495	176.327	59.5728	-64.0189	164.759	53.7085	-9.69409	169.491	45.3375	-33.6224	164.859	36.3099	-51.1042	163.924	37.0972	3.98122	162.959	28.229	-14.3004	148.76	12.7165	-29.8784	151.146	60.5636	34.1132	137.966	61.3514	58.6473	125.563	79.1429	38.7435	
67	0.558333	91.8356	64.56	35.2294	89.1088	51.8391	7.80282	95.0661	46.2297	-15.671	97.3852	37.8179	-33.5193	127.272	77.9539	-20.8776	124.454	66.8225	-43.9165	124.215	46.8827	-59.7565	152.536	82.2107	-16.3342	164.162	82.2026	-34.1509	174.777	80.88	-57.3223	166.006	67.0536	0.15448	175.619	68.4297	-22.7533	181.681	63.7901	-44.2896	173.744	50.8781	11.2811	179.45	49.6673	-13.0558	182.561	40.7941	-29.1423	149.296	67.2125	39.5066	141.845	64.2558	65.4021	122.659	81.61	40.2333	
68	0.566667	83.0384	55.0707	40.4536	78.0639	44.5386	16.489	72.5462	39.9965	-9.54009	75.4047	34.9732	-28.9171	108.149	71.4487	-18.3102	109.216	57.1747	-40.4048	104.887	32.7846	-51.2253	135.781	80.9746	-19.5859	140.632	81.1069	-38.3937	148.361	84.1604	-62.4216	153.051	73.9372	-2.31314	158.532	79.5979	-22.8038	167.446	85.2944	-44.4661	163.177	61.6352	10.4743	170.427	64.4996	-4.03256	183.831	67.6565	-24.3207	135.687	70.5938	37.5826	132.998	67.5828	60.5228	113.285	77.0972	41.3694	
69	0.575	75.1591	50.3113	40.2807	64.1197	39.1864	20.3112	56.2065	35.9359	-5.44939	53.4294	29.75	-20.6027	85.3772	61.5422	-22.9751	87.7363	43.3801	-39.7454	90.137	17.4201	-42.4759	110.604	76.8969	-21.7753	112.685	77.3069	-43.4517	122.751	78.9165	-67.781	131.913	74.9009	-5.35406	135.482	81.8043	-25.1957	147.476	91.2663	-42.9738	145.942	67.6456	6.11339	157.922	70.9101	-1.35834	168.499	80.7398	-13.5456	123.5	71.6412	31.9224	115.496	68.0707	60.0522	93.2693	71.5817	42.956	
70	0.583333	66.3358	43.7828	43.6964	54.1226	33.4267	20.5618	40.5209	29.3342	0.501915	35.7009	24.8057	-17.3948	77.1609	51.4597	-24.8399	78.0016	29.4521	-37.1233	83.2312	0.511656	-28.7114	99.3944	70.4643	-23.7897	95.4771	69.0922	-44.7612	103.821	69.6709	-69.2109	115.633	72.1627	-10.1487	119.506	80.4108	-28.1036	123.871	90.6136	-45.9646	133.466	68.6916	3.85723	144.571	76.4118	-6.20206	148.442	87.269	-12.4761	112.167	68.3245	27.369	107.926	66.929	52.7639	84.1835	70.4609	38.9613	
71	0.591667	64.9927	36.2536	43.3557	49.2499	25.087	25.7552	42.3033	21.5641	1.93685	30.4201	15.8719	-15.1474	74.2247	40.0623	-22.5697	83.179	14.4422	-32.4509	85.5551	-7.86938	-19.7807	91.961	58.1739	-28.5086	92.7533	56.0657	-46.9144	96.3428	53.829	-75.3868	113.004	64.5515	-14.0786	119.211	70.4353	-30.3387	119.352	83.2645	-49.8185	130.885	60.212	4.97828	135.395	69.5731	-6.39009	141.798	82.0586	-11.839	109.348	63.823	29.6058	105.114	60.9183	56.8177	81.6736	59.0661	41.0181	
72	0.6	66.2568	28.7922	48.136	51.3252	17.8432	24.4282	42.603	13.4226	4.17468	32.6611	6.98683	-11.4707	76.7068	33.3873	-19.5322	86.2419	4.28364	-29.4843	93.8067	-14.8823	-11.0417	92.7076	50.0313	-26.7731	96.1943	47.0797	-48.6342	96.5464	43.7007	-71.2118	110.073	58.4378	-12.1321	111.673	64.8659	-33.7803	117.73	75.4414	-49.543	126.55	56.7439	5.27531	133.44	69.3407	-9.03644	138.782	85.0451	-10.2554	106.765	59.2139	29.4333	105.588	59.1922	51.7421	77.9392	53.6961	36.4404	
73	0.608333	59.7092	27.5772	45.9167	43.8653	12.7919	29.471	38.4529	7.926	8.05806	28.4643	2.2982	-6.90239	68.1777	29.8726	-19.402	75.943	3.65975	-28.6267	88.2112	-15.8534	-14.3942	82.5552	49.5861	-25.1911	86.121	45.8417	-44.5568	88.4816	42.8836	-70.2342	99.5851	58.9704	-11.2889	104.762	67.6803	-32.0743	105.351	75.854	-49.3626	119.438	60.09	5.7128	126.246	71.8405	-5.43673	126.482	89.3412	-9.9703	96.0236	58.2699	27.5774	95.2679	58.8463	55.4801	70.3471	51.6429	40.9933	
74	0.616667	51.8395	26.1784	48.465	39.1214	12.6369	27.5945	31.2095	5.84726	10.3482	23.074	-0.860676	-7.27623	57.1811	30.52	-18.0204	67.6135	5.63539	-31.0393	82.862	-12.102	-19.1764	71.5613	49.461	-24.6157	76.4435	46.9583	-46.9225	79.2021	45.4075	-68.5817	89.3636	60.9277	-10.1065	92.9937	69.0318	-34.6221	92.7882	75.2362	-46.8828	108.253	62.8987	6.19658	113.877	76.0959	-6.96946	113.3	90.7837	-13.4743	87.9291	61.6035	27.3391	85.2178	60.7549	56.7769	60.1627	53.8562	38.1818	
75	0.625	42.9156	27.4398	48.3049	31.2251	12.0535	31.365	23.1903	4.55125	12.5235	13.1721	-2.81124	-7.68363	48.087	33.1142	-19.4798	56.0002	12.6789	-34.6907	67.5574	-11.381	-30.3859	61.8964	51.4917	-20.3506	64.8	49.144	-46.7817	69.9691	48.178	-72.5643	83.6685	63.1041	-13.9504	83.7341	66.7966	-29.2603	86.765	75.6111	-48.0517	101.395	62.509	7.50009	107.846	71.227	-3.60101	110.873	88.679	-12.311	80.7346	62.9091	28.6271	78.4021	61.5673	56.5137	50.6539	55.9587	39.381	
76	0.633333	38.0783	31.4965	47.8231	27.2399	14.672	24.3737	22.2193	5.66136	7.88485	12.3325	-4.67972	-7.5892	44.9818	42.8404	-17.963	44.4945	23.1785	-39.223	59.9963	-2.18426	-46.931	60.4378	57.0533	-22.4708	64.723	57.3823	-46.012	66.3235	57.0811	-68.6836	80.7447	62.7439	-10.9603	86.3843	70.4188	-32.6625	89.3782	76.4123	-48.281	100.059	61.7912	4.79199	108.168	68.1645	-6.09701	112.485	84.2983	-16.4551	76.0165	62.9622	32.6119	76.2989	67.7602	53.5439	50.0735	59.7546	42.9193	
77	0.641667	34.6212	33.2538	43.5929	33.2617	12.6476	26.2	26.9122	0.41801	8.42297	21.0056	-13.0744	-6.77298	42.2735	40.3816	-24.1063	47.3405	25.5306	-42.9818	58.1098	6.2379	-56.1797	65.7412	56.1024	-24.7445	66.7298	54.8844	-45.4146	75.4273	59.2544	-68.6243	88.75	62.8488	-15.2575	89.2692	63.5279	-31.6585	93.816	69.9103	-47.6576	106.613	60.0459	6.51277	115.576	64.3962	-6.39822	122.582	77.8143	-16.4982	75.931	64.7426	27.5996	74.4899	69.1394	51.2566	51.0223	62.4188	36.4279	
78	0.65	30.5879	30.5334	43.0164	33.8608	6.15881	29.9561	34.4453	-11.9337	8.10942	37.5463	-24.1805	-4.33899	48.5298	32.546	-20.9009	53.1857	14.8135	-41.3142	68.3529	-2.60494	-52.5154	66.2995	48.8576	-22.5217	75.7838	46.8201	-44.1191	80.9443	47.3859	-66.2212	86.3872	59.4989	-13.5911	93.5287	62.2483	-31.6913	97.3872	65.0806	-48.7648	102.478	64.7369	4.62212	110.041	67.5459	-2.99017	112.827	78.3764	-15.8166	66.6923	68.5573	25.7091	57.6183	74.4749	49.7356	42.2818	60.719	30.5784	
79	0.658333	22.7503	24.5045	40.5661	31.046	0.0897649	30.7336	39.1609	-13.8764	19.7175	45.248	-29.5557	5.12689	44.8042	16.1806	-22.5591	62.4559	1.63606	-34.4045	76.4355	-17.5684	-35.3481	56.7641	39.2557	-25.1933	68.3833	34.4028	-43.5886	78.9324	30.4265	-69.2351	68.9164	56.5376	-14.0049	77.8341	57.8963	-35.4063	84.789	61.0487	-53.942	83.022	72.4233	2.38215	87.8681	72.5833	-11.0964	92.0705	87.6627	-21.5797	47.6003	68.2837	21.6289	36.5207	74.0267	40.3887	24.6918	53.7206	27.6361	
80	0.666667	13.6873	22.6035	40.7223	27.0746	-2.87995	29.8033	35.619	-18.0346	19.3181	40.9721	-35.648	10.756	42.9967	14.5489	-21.7111	61.2104	-3.50949	-26.5049	81.6553	-17.1895	-19.437	51.3123	36.869	-26.9484	64.447	31.7273	-44.7748	74.8967	23.0729	-64.6248	57.3924	57.5907	-16.5297	66.4235	56.2047	-35.2624	72.2059	58.9097	-54.9619	65.1613	72.427	-1.05062	73.5222	79.8076	-14.2127	74.5024	91.9314	-27.7074	33.4582	65.9406	18.2902	23.4783	72.7503	38.1809	13.3256	49.9043	25.4337	
